<svg xmlns="http://www.w3.org/2000/svg" width="638.427" height="578.139" viewBox="0 0 638.427 578.139"><path d="M234.986 1.287A62.914 62.914 0 00219.309.073c-43.764 2.111-77.1 49.293-74.459 105.384 2.317 49.256 31.6 89 68.34 96.53a71.194 71.194 0 0015.682 1.21c53.248-1.015 77.1-49.29 74.459-105.384-2.32-49.253-31.6-89-68.34-96.527M92.441 154.868a64.327 64.327 0 00-23.419-3.105C27.176 154.025-3.573 197.108.335 247.987c3.159 41.091 27.958 74.705 59.425 84.925a63.544 63.544 0 0023.419 3.105c52.806-3.105 72.595-45.345 68.684-96.227-3.157-41.091-27.955-74.703-59.422-84.922m455.554 321.165c4.956-80.161-73.826-108.327-95.3-146.211-35.793-63.134-82.11-96.311-133.479-96.311s-97.69 33.177-133.483 96.311c-21.474 37.884-98.641 65.965-95.3 146.211 4.272 102.656 98.381 110.493 144.242 96.308 33.372-10.321 57.935-27.095 84.54-26.754 26.606-.341 51.168 16.433 84.537 26.754 45.864 14.185 137.711 9.35 144.245-96.308M403.434 1.287A62.911 62.911 0 01419.116.073c43.764 2.111 77.1 49.293 74.459 105.384-2.317 49.256-31.6 89-68.34 96.53a71.193 71.193 0 01-15.681 1.21c-53.249-1.015-77.1-49.29-74.46-105.384 2.32-49.253 31.6-89 68.34-96.527m142.551 153.582a64.337 64.337 0 0123.421-3.105c41.844 2.262 72.594 45.345 68.687 96.227-3.158 41.091-27.957 74.705-59.425 84.925a63.547 63.547 0 01-23.421 3.105c-52.806-3.105-72.594-45.345-68.681-96.227 3.151-41.094 27.951-74.706 59.419-84.925"/></svg>